<svg xmlns="http://www.w3.org/2000/svg" width="447" height="363" viewBox="0 0 447 363">
    <g fill="none" fill-rule="evenodd">
        <path fill="#FFF" fill-rule="nonzero" d="M402.681 44.592c36.9 28.7 52.3 92.1 38.9 148.1-13.4 56-55.7 104.7-111.7 136.1-56.1 31.3-125.9 45.4-187.3 23.1-61.5-22.3-114.5-81-134-151.7-19.5-70.6-5.6-153.2 40-184 45.7-30.7 123.1-9.7 191-2.1s126.3 1.7 163.1 30.5z"/>
        <path fill="#F3F7FF" d="M291.886 206.402H167.138c-5.81 0-10.521-4.719-10.521-10.54 0-5.821 4.71-10.54 10.52-10.54h-58.616c-5.81 0-10.521-4.72-10.521-10.54 0-5.822 4.71-10.54 10.521-10.54h60.12c5.81 0 10.52-4.72 10.52-10.54 0-5.822-4.71-10.541-10.52-10.541h-37.575c-5.81 0-10.521-4.72-10.521-10.54 0-5.822 4.71-10.54 10.52-10.54h60.12c-5.81 0-10.52-4.72-10.52-10.54 0-5.822 4.71-10.541 10.52-10.541H338.48c5.81 0 10.521 4.719 10.521 10.54 0 5.821-4.71 10.54-10.521 10.54h-60.12c5.81 0 10.521 4.72 10.521 10.54 0 5.822-4.71 10.54-10.52 10.54h33.065c5.81 0 10.521 4.72 10.521 10.541 0 5.821-4.71 10.54-10.52 10.54h-15.292c-7.327 0-13.266 4.72-13.266 10.54 0 3.881 3.006 7.395 9.018 10.54 5.81 0 10.521 4.72 10.521 10.541 0 5.821-4.71 10.54-10.52 10.54zm46.593-42.16c-5.81 0-10.52-4.72-10.52-10.54 0-5.822 4.71-10.541 10.52-10.541S349 147.88 349 153.7c0 5.821-4.71 10.54-10.521 10.54z"/>
        <g stroke-width="3.75" transform="translate(158.12 102.506)">
            <ellipse cx="50.35" cy="50.443" fill="#F3F7FF" stroke="#57A3F9" rx="50.35" ry="50.443"/>
            <path fill="#FFF" stroke="#57A3F9" stroke-linecap="round" stroke-opacity=".5" d="M42.282 89.583c2.644.489 5.333.743 8.068.762 21.997 0 39.83-17.865 39.83-39.902 0-22.038-17.833-39.903-39.83-39.903a39.634 39.634 0 0 0-15.896 3.305 40.016 40.016 0 0 0-19.58 18.441 39.792 39.792 0 0 0-4.353 18.157 39.816 39.816 0 0 0 3.61 16.623 39.956 39.956 0 0 0 6.436 9.871"/>
            <path stroke="#75A4FE" stroke-linecap="round" d="M25.246 81.423a39.77 39.77 0 0 0 10.827 6.282" opacity=".5"/>
            <path stroke="#57A3F9" stroke-linecap="round" d="M51.102 22.586c-2.59 0-5.098.345-7.483.992-12.142 3.294-21.074 14.41-21.074 27.617"/>
            <path stroke="#75A4FE" d="M91.683 90.345l9.018 9.034"/>
            <path fill="#E8F0FE" stroke="#57A3F9" d="M99.242 97.913a7.313 7.313 0 0 0 0 10.333l16.66 16.692c.006.004.006.004.01.01a7.28 7.28 0 0 0 10.295-.01 7.313 7.313 0 0 0 0-10.333l-16.66-16.692-.01-.01a7.28 7.28 0 0 0-10.295.01z"/>
            <path stroke="#FFF" stroke-linecap="round" d="M106.713 100.885l16.533 16.563"/>
        </g>
        <path stroke="#57A3F9" stroke-linecap="round" stroke-linejoin="round" stroke-width="3.75" d="M298.65 141.655h-25.815 25.815zm10.52 0h-3.338 3.339zm-20.026 11.71h-12.288 12.288zM146.847 173.276h-25.815 25.815zm-34.569 0h-6.344 6.344zm41.597 13.216h-12.288 12.288z" opacity=".5"/>
    </g>
</svg>
