<?xml version="1.0" encoding="UTF-8"?>
<svg width="21px" height="14px" viewBox="0 0 21 14" version="1.1" xmlns="http://www.w3.org/2000/svg" xmlns:xlink="http://www.w3.org/1999/xlink">
    <!-- Generator: sketchtool 41.2 (35397) - http://www.bohemiancoding.com/sketch -->
    <title>DBCE5F9E-4E57-46DE-A919-9BED93AF61F3</title>
    <desc>Created with sketchtool.</desc>
    <defs></defs>
    <g id="list_page" stroke="none" stroke-width="1" fill="none" fill-rule="evenodd">
        <g id="🖥-desktop:-list_page" transform="translate(-1052.000000, -3288.000000)">
            <g id="india" transform="translate(1052.000000, 3288.000000)">
                <g id="Layer_1">
                    <path d="M20.9590643,4.6705 L0,4.6705 L0,0.379291667 C0,0.176166667 0.161818713,0.0114583333 0.361380117,0.0114583333 L20.5977251,0.0114583333 C20.7972865,0.0114583333 20.9591053,0.176166667 20.9591053,0.379291667 L20.9591053,4.6705 L20.9590643,4.6705 Z" id="Shape" fill="#FAB446"></path>
                    <path d="M20.5976842,13.9885 L0.361380117,13.9885 C0.161818713,13.9885 0,13.8237917 0,13.6206667 L0,9.3295 L20.9590643,9.3295 L20.9590643,13.6206667 C20.9590643,13.8238333 20.7972456,13.9885 20.5976842,13.9885 Z" id="Shape" fill="#73AF00"></path>
                    <rect id="Rectangle-path" fill="#F5F5F5" x="0" y="4.67033333" width="20.9590643" height="4.65883333"></rect>
                    <g id="Group" transform="translate(8.514620, 5.000000)" fill="#41479B">
                        <path d="M1.96491228,3.977 C0.893871345,3.977 0.0225964912,3.09016667 0.0225964912,2 C0.0225964912,0.909833333 0.893871345,0.023 1.96491228,0.023 C3.03595322,0.023 3.90722807,0.909833333 3.90722807,2 C3.90722807,3.09016667 3.03595322,3.977 1.96491228,3.977 Z M1.96491228,0.390791667 C1.09306433,0.390791667 0.383935673,1.11258333 0.383935673,2 C0.383935673,2.88741667 1.09306433,3.60920833 1.96491228,3.60920833 C2.83676023,3.60920833 3.54588889,2.88741667 3.54588889,2 C3.54588889,1.11258333 2.83676023,0.390791667 1.96491228,0.390791667 Z" id="Shape"></path>
                        <circle id="Oval" cx="1.9688443" cy="2" r="0.224125"></circle>
                        <polygon id="Shape" points="1.96491228 2.033625 1.40532164 2.091125 0.20328655 2.033625 0.20328655 1.966375 1.40532164 1.908875 1.96491228 1.966375"></polygon>
                        <polygon id="Shape" points="1.96491228 2.033625 2.52450292 2.091125 3.72653801 2.033625 3.72653801 1.966375 2.52450292 1.908875 1.96491228 1.966375"></polygon>
                        <polygon id="Shape" points="1.93288596 2 1.87538596 1.43041667 1.93288596 0.206916667 2.00013596 0.206916667 2.05763596 1.43041667 2.00013596 2"></polygon>
                        <polygon id="Shape" points="1.93288596 2 1.87538596 2.56958333 1.93288596 3.79308333 2.00013596 3.79308333 2.05763596 2.56958333 2.00013596 2"></polygon>
                        <polygon id="Shape" points="1.94157895 2.02375 1.50594152 1.66170833 0.695906433 0.755875 0.742614035 0.708333333 1.63255556 1.53283333 1.98824561 1.97625"></polygon>
                        <polygon id="Shape" points="1.94157895 2.02375 2.29726901 2.46716667 3.18721053 3.29166667 3.23391813 3.244125 2.42388304 2.33829167 1.98824561 1.97625"></polygon>
                        <polygon id="Shape" points="1.94157895 1.97625 2.29726901 1.53283333 3.18721053 0.708333333 3.23391813 0.755875 2.42388304 1.66170833 1.98824561 2.02375"></polygon>
                        <polygon id="Shape" points="1.94157895 1.97625 1.50594152 2.33829167 0.695906433 3.244125 0.742614035 3.29166667 1.63255556 2.46716667 1.98824561 2.02375"></polygon>
                        <polygon id="Shape" points="1.9775614 2.03108333 1.48215789 2.30216667 0.350040936 2.71725 0.32474269 2.655125 1.41367251 2.13379167 1.95226316 1.96891667"></polygon>
                        <polygon id="Shape" points="1.9775614 2.03108333 2.51615205 1.86620833 3.60508187 1.344875 3.57978363 1.28275 2.44766667 1.69783333 1.95226316 1.96891667"></polygon>
                        <polygon id="Shape" points="1.93437427 2.012875 1.66804678 1.508625 1.26024561 0.356291667 1.3212807 0.330541667 1.83346784 1.43891667 1.99545029 1.987125"></polygon>
                        <polygon id="Shape" points="1.93437427 2.012875 2.09635673 2.56108333 2.60854386 3.66945833 2.66957895 3.64370833 2.26177778 2.491375 1.99545029 1.987125"></polygon>
                        <polygon id="Shape" points="1.95226316 2.03108333 1.41367251 1.86620833 0.32474269 1.344875 0.350040936 1.28275 1.48215789 1.69783333 1.9775614 1.96891667"></polygon>
                        <polygon id="Shape" points="1.95226316 2.03108333 2.44766667 2.30216667 3.57978363 2.71725 3.60508187 2.655125 2.51615205 2.13379167 1.9775614 1.96891667"></polygon>
                        <polygon id="Shape" points="1.93437427 1.987125 2.09635673 1.43891667 2.60854386 0.330541667 2.66957895 0.356291667 2.26177778 1.508625 1.99545029 2.012875"></polygon>
                        <polygon id="Shape" points="1.93437427 1.987125 1.66804678 2.491375 1.26024561 3.64370833 1.3212807 3.66945833 1.83346784 2.56108333 1.99545029 2.012875"></polygon>
                    </g>
                    <ellipse id="Oval" fill="#F5F5F5" cx="10.4795322" cy="7" rx="0.29702924" ry="0.302333333"></ellipse>
                    <circle id="Oval" fill="#41479B" cx="10.4827127" cy="7" r="0.181291667"></circle>
                </g>
            </g>
        </g>
    </g>
</svg>